<svg xmlns='http://www.w3.org/2000/svg' width='1200' height='630' viewBox='0 0 1200 630'>
  <defs><linearGradient id='g' x1='0' y1='0' x2='1' y2='1'><stop offset='0%' stop-color='#1f1147'/><stop offset='100%' stop-color='#512BD4'/></linearGradient></defs>
  <rect width='1200' height='630' fill='url(#g)'/>
  <circle cx='1030' cy='120' r='210' fill='rgba(255,255,255,0.06)'/>
  <circle cx='150' cy='540' r='150' fill='rgba(255,255,255,0.05)'/>
  <rect x='96' y='175' width='280' height='280' rx='56' fill='#ffffff'/>
  <svg x='146' y='265' width='180' height='100' viewBox='0 0 24 24' fill='#512BD4'><path d="M24 8.77h-2.468v7.565h-1.425V8.77h-2.462V7.53H24zm-6.852 7.565h-4.821V7.53h4.63v1.24h-3.205v2.494h2.953v1.234h-2.953v2.604h3.396zm-6.708 0H8.882L4.78 9.863a2.896 2.896 0 0 1-.258-.51h-.036c.032.189.048.592.048 1.21v5.772H3.157V7.53h1.659l3.965 6.32c.167.261.275.442.323.54h.024c-.04-.233-.06-.629-.06-1.185V7.529h1.372zm-8.703-.693a.868.829 0 0 1-.869.829.868.829 0 0 1-.868-.83.868.829 0 0 1 .868-.828.868.829 0 0 1 .869.829Z"/></svg>
  <text x='430' y='285' font-family='Segoe UI, Arial, sans-serif' font-size='30' fill='rgba(255,255,255,0.55)'>&lt;/&gt; blog</text>
  <text x='430' y='362' font-family='Segoe UI, Arial, sans-serif' font-size='60' font-weight='700' fill='#ffffff'>EF Core</text>
</svg>
