<svg xmlns='http://www.w3.org/2000/svg' width='1200' height='630' viewBox='0 0 1200 630'>
  <defs><linearGradient id='g' x1='0' y1='0' x2='1' y2='1'><stop offset='0%' stop-color='#12281a'/><stop offset='100%' stop-color='#47A248'/></linearGradient></defs>
  <rect width='1200' height='630' fill='url(#g)'/>
  <circle cx='1030' cy='120' r='210' fill='rgba(255,255,255,0.06)'/>
  <circle cx='150' cy='540' r='150' fill='rgba(255,255,255,0.05)'/>
  <rect x='96' y='175' width='280' height='280' rx='56' fill='#ffffff'/>
  <svg x='156' y='235' width='160' height='160' viewBox='0 0 24 24' fill='#47A248'><path d="M17.193 9.555c-1.264-5.58-4.252-7.414-4.573-8.115-.28-.394-.53-.954-.735-1.44-.036.495-.055.685-.523 1.184-.723.566-4.438 3.682-4.74 10.02-.282 5.912 4.27 9.435 4.888 9.884l.07.05A73.49 73.49 0 0111.91 24h.481c.114-1.032.284-2.056.51-3.07.417-.296.604-.463.85-.693a11.342 11.342 0 003.639-8.464c.01-.814-.103-1.662-.197-2.218zm-5.336 8.195s0-8.291.275-8.29c.213 0 .49 10.695.49 10.695-.381-.045-.765-1.76-.765-2.405z"/></svg>
  <text x='430' y='285' font-family='Segoe UI, Arial, sans-serif' font-size='30' fill='rgba(255,255,255,0.55)'>&lt;/&gt; blog</text>
  <text x='430' y='362' font-family='Segoe UI, Arial, sans-serif' font-size='64' font-weight='700' fill='#ffffff'>MongoDB</text>
</svg>
