<svg xmlns='http://www.w3.org/2000/svg' width='1200' height='630' viewBox='0 0 1200 630'>
  <defs><linearGradient id='g' x1='0' y1='0' x2='1' y2='1'><stop offset='0%' stop-color='#3a0f0d'/><stop offset='100%' stop-color='#DC382D'/></linearGradient></defs>
  <rect width='1200' height='630' fill='url(#g)'/>
  <circle cx='1030' cy='120' r='210' fill='rgba(255,255,255,0.06)'/>
  <circle cx='150' cy='540' r='150' fill='rgba(255,255,255,0.05)'/>
  <rect x='96' y='175' width='280' height='280' rx='56' fill='#ffffff'/>
  <svg x='146' y='265' width='180' height='100' viewBox='0 0 24 24' fill='#DC382D'><path d="M22.71 13.145c-1.66 2.092-3.452 4.483-7.038 4.483-3.203 0-4.397-2.825-4.48-5.12.701 1.484 2.073 2.685 4.214 2.63 4.117-.133 6.94-3.852 6.94-7.239 0-4.05-3.022-6.972-8.268-6.972-3.752 0-8.4 1.428-11.455 3.685C2.59 6.937 3.885 9.958 4.35 9.626c2.648-1.904 4.748-3.13 6.784-3.744C8.12 9.244.886 17.05 0 18.425c.1 1.261 1.66 4.648 2.424 4.648.232 0 .431-.133.664-.365a100.49 100.49 0 0 0 5.54-6.765c.222 3.104 1.748 6.898 6.014 6.898 3.819 0 7.604-2.756 9.33-8.965.2-.764-.73-1.361-1.261-.73zm-4.349-5.013c0 1.959-1.926 2.922-3.685 2.922-.941 0-1.664-.247-2.235-.568 1.051-1.592 2.092-3.225 3.21-4.973 1.972.334 2.71 1.43 2.71 2.619z"/></svg>
  <text x='430' y='285' font-family='Segoe UI, Arial, sans-serif' font-size='30' fill='rgba(255,255,255,0.55)'>&lt;/&gt; blog</text>
  <text x='430' y='362' font-family='Segoe UI, Arial, sans-serif' font-size='64' font-weight='700' fill='#ffffff'>Redis</text>
</svg>
