<svg xmlns='http://www.w3.org/2000/svg' width='1200' height='630' viewBox='0 0 1200 630'>
  <defs><linearGradient id='g' x1='0' y1='0' x2='1' y2='1'><stop offset='0%' stop-color='#062a33'/><stop offset='100%' stop-color='#06B6D4'/></linearGradient></defs>
  <rect width='1200' height='630' fill='url(#g)'/>
  <circle cx='1030' cy='120' r='210' fill='rgba(255,255,255,0.06)'/>
  <circle cx='150' cy='540' r='150' fill='rgba(255,255,255,0.05)'/>
  <rect x='96' y='175' width='280' height='280' rx='56' fill='#ffffff'/>
  <svg x='146' y='275' width='180' height='80' viewBox='0 0 24 24' fill='#06B6D4'><path d="M12.001,4.8c-3.2,0-5.2,1.6-6,4.8c1.2-1.6,2.6-2.2,4.2-1.8c0.913,0.228,1.565,0.89,2.288,1.624 C13.666,10.618,15.027,12,18.001,12c3.2,0,5.2-1.6,6-4.8c-1.2,1.6-2.6,2.2-4.2,1.8c-0.913-0.228-1.565-0.89-2.288-1.624 C16.337,6.182,14.976,4.8,12.001,4.8z M6.001,12c-3.2,0-5.2,1.6-6,4.8c1.2-1.6,2.6-2.2,4.2-1.8c0.913,0.228,1.565,0.89,2.288,1.624 c1.177,1.194,2.538,2.576,5.512,2.576c3.2,0,5.2-1.6,6-4.8c-1.2,1.6-2.6,2.2-4.2,1.8c-0.913-0.228-1.565-0.89-2.288-1.624 C10.337,13.382,8.976,12,6.001,12z"/></svg>
  <text x='430' y='285' font-family='Segoe UI, Arial, sans-serif' font-size='30' fill='rgba(255,255,255,0.55)'>&lt;/&gt; blog</text>
  <text x='430' y='362' font-family='Segoe UI, Arial, sans-serif' font-size='56' font-weight='700' fill='#ffffff'>Tailwind CSS</text>
</svg>
